<?xml version="1.0" encoding="utf-8"?>
<!-- Generator: Adobe Illustrator 17.0.0, SVG Export Plug-In . SVG Version: 6.00 Build 0)  -->
<!DOCTYPE svg PUBLIC "-//W3C//DTD SVG 1.1//EN" "http://www.w3.org/Graphics/SVG/1.1/DTD/svg11.dtd">
<svg version="1.1" id="Layer_1" xmlns="http://www.w3.org/2000/svg" xmlns:xlink="http://www.w3.org/1999/xlink" x="0px" y="0px"
	 width="977.769px" height="561.11px" viewBox="0 0 977.769 561.11" enable-background="new 0 0 977.769 561.11"
	 xml:space="preserve">
<g>
	<g>
		<radialGradient id="SVGID_1_" cx="327.3997" cy="273.6624" r="238.5499" gradientUnits="userSpaceOnUse">
			<stop  offset="0.0178" style="stop-color:#414042"/>
			<stop  offset="0.1393" style="stop-color:#484849"/>
			<stop  offset="0.3194" style="stop-color:#5A5B5D"/>
			<stop  offset="0.536" style="stop-color:#747678"/>
			<stop  offset="0.7786" style="stop-color:#96989B"/>
			<stop  offset="1" style="stop-color:#BCBEC0"/>
		</radialGradient>
		<path stroke="url(#SVGID_1_)" stroke-width="2" stroke-miterlimit="10" d="M70.968,82.707l63.283,388.096
			c0,0,5.744,18.08,23.859,18.727c18.115,0.645,417.832,0,417.832,0s10.332-16.145,8.395-25.83
			c-1.938-9.685-66.512-329.332-66.512-329.332s-5.812-16.79-14.206-18.727c-8.395-1.938-421.028-58.118-421.028-58.118
			S66.629,56.096,70.968,82.707z"/>
		<path stroke="#4C4C4D" stroke-width="2" stroke-miterlimit="10" d="M72.901,83.919l62.845,384.87c0,0,5.704,17.93,23.693,18.57
			c17.99,0.641,414.939,0,414.939,0s10.26-16.008,8.336-25.615c-1.924-9.605-66.051-326.594-66.051-326.594
			s-5.772-16.65-14.108-18.571c-8.338-1.921-418.111-57.634-418.111-57.634S68.592,57.53,72.901,83.919z"/>
	</g>
	<linearGradient id="SVGID_2_" gradientUnits="userSpaceOnUse" x1="148.4834" y1="478.1445" x2="907.5498" y2="478.1445">
		<stop  offset="0.0051" style="stop-color:#939598"/>
		<stop  offset="0.0102" style="stop-color:#F1F2F2"/>
		<stop  offset="0.2859" style="stop-color:#BCBEC0"/>
		<stop  offset="0.3227" style="stop-color:#BDBFC2"/>
		<stop  offset="0.3359" style="stop-color:#C3C5C7"/>
		<stop  offset="0.3454" style="stop-color:#CDCFD0"/>
		<stop  offset="0.353" style="stop-color:#DBDCDD"/>
		<stop  offset="0.3573" style="stop-color:#E6E7E8"/>
		<stop  offset="0.3663" style="stop-color:#E3E4E5"/>
		<stop  offset="0.3742" style="stop-color:#DADCDD"/>
		<stop  offset="0.3818" style="stop-color:#CBCDCF"/>
		<stop  offset="0.3892" style="stop-color:#B6B8BA"/>
		<stop  offset="0.3963" style="stop-color:#9C9EA0"/>
		<stop  offset="0.3982" style="stop-color:#949699"/>
		<stop  offset="0.4031" style="stop-color:#A2A5A7"/>
		<stop  offset="0.4127" style="stop-color:#BABCBE"/>
		<stop  offset="0.4234" style="stop-color:#CED0D2"/>
		<stop  offset="0.4355" style="stop-color:#DEDFE0"/>
		<stop  offset="0.4497" style="stop-color:#E9EAEB"/>
		<stop  offset="0.468" style="stop-color:#EFF0F0"/>
		<stop  offset="0.5053" style="stop-color:#F1F2F2"/>
		<stop  offset="0.5308" style="stop-color:#ECEDEE"/>
		<stop  offset="0.6351" style="stop-color:#DDDEE0"/>
		<stop  offset="0.7447" style="stop-color:#D4D5D7"/>
		<stop  offset="0.8673" style="stop-color:#D1D3D4"/>
		<stop  offset="0.9255" style="stop-color:#D0D1D3"/>
		<stop  offset="0.9464" style="stop-color:#CACCCD"/>
		<stop  offset="0.9613" style="stop-color:#C0C2C4"/>
		<stop  offset="0.9734" style="stop-color:#B2B4B7"/>
		<stop  offset="0.9836" style="stop-color:#A1A3A5"/>
		<stop  offset="0.9898" style="stop-color:#939598"/>
		<stop  offset="1" style="stop-color:#D1D3D4"/>
		<stop  offset="1" style="stop-color:#D0D1D3"/>
		<stop  offset="1" style="stop-color:#CACCCD"/>
		<stop  offset="1" style="stop-color:#C0C2C4"/>
		<stop  offset="1" style="stop-color:#B2B4B7"/>
		<stop  offset="1" style="stop-color:#A1A3A5"/>
		<stop  offset="1" style="stop-color:#939598"/>
	</linearGradient>
	<polygon fill="url(#SVGID_2_)" points="907.55,473.02 906.493,473.02 149.206,473.02 148.601,473.02 148.483,483.27 907.55,483.27 
			"/>
	<linearGradient id="SVGID_3_" gradientUnits="userSpaceOnUse" x1="528.0112" y1="483.2695" x2="528.0112" y2="493.5195">
		<stop  offset="0" style="stop-color:#939598"/>
		<stop  offset="0.4643" style="stop-color:#939598"/>
		<stop  offset="0.9694" style="stop-color:#000000"/>
	</linearGradient>
	<path fill="url(#SVGID_3_)" d="M148.483,483.27l-0.011,0.916c5.755,7.676,41.822,9.334,41.822,9.334s532.435,0,623.89,0
		c91.453,0,93.365-9.98,93.365-9.98v-0.27H148.483z"/>
	<linearGradient id="SVGID_4_" gradientUnits="userSpaceOnUse" x1="141.7114" y1="526.0098" x2="141.7114" y2="536.241">
		<stop  offset="0" style="stop-color:#BCBEC0"/>
		<stop  offset="0.4643" style="stop-color:#939598"/>
		<stop  offset="0.9694" style="stop-color:#58595B"/>
	</linearGradient>
	<path fill="url(#SVGID_4_)" d="M141.658,526.01l-0.011,0.916c0.033,0.045,0.081,0.086,0.116,0.129l0.012-1.045H141.658z"/>
	<linearGradient id="SVGID_5_" gradientUnits="userSpaceOnUse" x1="148.5361" y1="488.3945" x2="907.4971" y2="488.3945">
		<stop  offset="0.0051" style="stop-color:#939598"/>
		<stop  offset="0.0102" style="stop-color:#F1F2F2"/>
		<stop  offset="0.2859" style="stop-color:#BCBEC0"/>
		<stop  offset="0.3122" style="stop-color:#BDBFC2"/>
		<stop  offset="0.3216" style="stop-color:#C3C5C7"/>
		<stop  offset="0.3284" style="stop-color:#CDCFD0"/>
		<stop  offset="0.3338" style="stop-color:#DBDCDD"/>
		<stop  offset="0.3369" style="stop-color:#E6E7E8"/>
		<stop  offset="0.3447" style="stop-color:#E3E4E5"/>
		<stop  offset="0.3517" style="stop-color:#DADCDD"/>
		<stop  offset="0.3583" style="stop-color:#CBCDCF"/>
		<stop  offset="0.3648" style="stop-color:#B6B8BA"/>
		<stop  offset="0.371" style="stop-color:#9C9EA0"/>
		<stop  offset="0.3726" style="stop-color:#949699"/>
		<stop  offset="0.3771" style="stop-color:#A2A5A7"/>
		<stop  offset="0.3858" style="stop-color:#BABCBE"/>
		<stop  offset="0.3955" style="stop-color:#CED0D2"/>
		<stop  offset="0.4064" style="stop-color:#DEDFE0"/>
		<stop  offset="0.4193" style="stop-color:#E9EAEB"/>
		<stop  offset="0.4359" style="stop-color:#EFF0F0"/>
		<stop  offset="0.4696" style="stop-color:#F1F2F2"/>
		<stop  offset="0.4976" style="stop-color:#ECEDEE"/>
		<stop  offset="0.6122" style="stop-color:#DDDEE0"/>
		<stop  offset="0.7326" style="stop-color:#D4D5D7"/>
		<stop  offset="0.8673" style="stop-color:#D1D3D4"/>
		<stop  offset="0.9158" style="stop-color:#D0D1D3"/>
		<stop  offset="0.9332" style="stop-color:#CACCCD"/>
		<stop  offset="0.9457" style="stop-color:#C0C2C4"/>
		<stop  offset="0.9557" style="stop-color:#B2B4B7"/>
		<stop  offset="0.9642" style="stop-color:#A1A3A5"/>
		<stop  offset="0.9694" style="stop-color:#939598"/>
		<stop  offset="0.9798" style="stop-color:#D1D3D4"/>
		<stop  offset="0.9894" style="stop-color:#D0D1D3"/>
		<stop  offset="0.9928" style="stop-color:#CACCCD"/>
		<stop  offset="0.9953" style="stop-color:#C0C2C4"/>
		<stop  offset="0.9973" style="stop-color:#B2B4B7"/>
		<stop  offset="0.999" style="stop-color:#A1A3A5"/>
		<stop  offset="1" style="stop-color:#939598"/>
	</linearGradient>
	<path opacity="0.15" fill="url(#SVGID_5_)" d="M906.442,483.27H149.154h-0.605l-0.012,1.047c6.069,7.561,41.707,9.203,41.707,9.203
		h623.889c91.453,0,93.365-9.98,93.365-9.98v-0.27H906.442z"/>
	<linearGradient id="SVGID_6_" gradientUnits="userSpaceOnUse" x1="676.5791" y1="477.0798" x2="737.6807" y2="477.0798">
		<stop  offset="0.0051" style="stop-color:#939598"/>
		<stop  offset="0.0068" style="stop-color:#97999C"/>
		<stop  offset="0.0227" style="stop-color:#B6B8BA"/>
		<stop  offset="0.0384" style="stop-color:#D0D1D3"/>
		<stop  offset="0.0536" style="stop-color:#E2E3E4"/>
		<stop  offset="0.0683" style="stop-color:#EDEDEE"/>
		<stop  offset="0.0816" style="stop-color:#F1F1F2"/>
		<stop  offset="0.541" style="stop-color:#F1F2F2"/>
		<stop  offset="0.7999" style="stop-color:#EFF0F1"/>
		<stop  offset="0.8931" style="stop-color:#EAEBEB"/>
		<stop  offset="0.9132" style="stop-color:#E7E8E9"/>
		<stop  offset="0.927" style="stop-color:#DFE0E2"/>
		<stop  offset="0.9502" style="stop-color:#C9CBCD"/>
		<stop  offset="0.9799" style="stop-color:#A6A8AB"/>
		<stop  offset="0.9949" style="stop-color:#939598"/>
	</linearGradient>
	<path fill="url(#SVGID_6_)" d="M676.579,473.176c0,0,0.666,7.754,7.353,7.754c6.684,0,47.465,0,47.465,0s6.016,1.205,6.283-7.754
		H676.579z"/>
	<g>
		
			<image overflow="visible" width="506" height="307" xlink:href="7C21116C04D8F1C5.png"  transform="matrix(0.24 0 0 0.24 238.8599 449.4863)">
		</image>
	</g>
	<g>
		
			<image overflow="visible" width="506" height="307" xlink:href="7C21116C04D8F1C7.png"  transform="matrix(0.24 0 0 0.24 289.8745 449.4863)">
		</image>
	</g>
	<g>
		
			<image overflow="visible" width="506" height="307" xlink:href="7C21116C04D8F1C2.png"  transform="matrix(0.24 0 0 0.24 340.8887 449.4863)">
		</image>
	</g>
	<g>
		<linearGradient id="SVGID_7_" gradientUnits="userSpaceOnUse" x1="160.1519" y1="475.0264" x2="160.1519" y2="475.0264">
			<stop  offset="0.0051" style="stop-color:#939598"/>
			<stop  offset="0.0102" style="stop-color:#F1F2F2"/>
			<stop  offset="0.2859" style="stop-color:#BCBEC0"/>
			<stop  offset="0.3122" style="stop-color:#BDBFC2"/>
			<stop  offset="0.3216" style="stop-color:#C3C5C7"/>
			<stop  offset="0.3284" style="stop-color:#CDCFD0"/>
			<stop  offset="0.3338" style="stop-color:#DBDCDD"/>
			<stop  offset="0.3369" style="stop-color:#E6E7E8"/>
			<stop  offset="0.3447" style="stop-color:#E3E4E5"/>
			<stop  offset="0.3517" style="stop-color:#DADCDD"/>
			<stop  offset="0.3583" style="stop-color:#CBCDCF"/>
			<stop  offset="0.3648" style="stop-color:#B6B8BA"/>
			<stop  offset="0.371" style="stop-color:#9C9EA0"/>
			<stop  offset="0.3726" style="stop-color:#949699"/>
			<stop  offset="0.3771" style="stop-color:#A2A5A7"/>
			<stop  offset="0.3858" style="stop-color:#BABCBE"/>
			<stop  offset="0.3955" style="stop-color:#CED0D2"/>
			<stop  offset="0.4064" style="stop-color:#DEDFE0"/>
			<stop  offset="0.4193" style="stop-color:#E9EAEB"/>
			<stop  offset="0.4359" style="stop-color:#EFF0F0"/>
			<stop  offset="0.4696" style="stop-color:#F1F2F2"/>
			<stop  offset="0.4976" style="stop-color:#ECEDEE"/>
			<stop  offset="0.6122" style="stop-color:#DDDEE0"/>
			<stop  offset="0.7326" style="stop-color:#D4D5D7"/>
			<stop  offset="0.8673" style="stop-color:#D1D3D4"/>
			<stop  offset="0.9158" style="stop-color:#D0D1D3"/>
			<stop  offset="0.9332" style="stop-color:#CACCCD"/>
			<stop  offset="0.9457" style="stop-color:#C0C2C4"/>
			<stop  offset="0.9557" style="stop-color:#B2B4B7"/>
			<stop  offset="0.9642" style="stop-color:#A1A3A5"/>
			<stop  offset="0.9694" style="stop-color:#939598"/>
			<stop  offset="0.9798" style="stop-color:#D1D3D4"/>
			<stop  offset="0.9894" style="stop-color:#D0D1D3"/>
			<stop  offset="0.9928" style="stop-color:#CACCCD"/>
			<stop  offset="0.9953" style="stop-color:#C0C2C4"/>
			<stop  offset="0.9973" style="stop-color:#B2B4B7"/>
			<stop  offset="0.999" style="stop-color:#A1A3A5"/>
			<stop  offset="1" style="stop-color:#939598"/>
		</linearGradient>
		<path fill="url(#SVGID_7_)" d="M160.152,475.026"/>
		<linearGradient id="SVGID_8_" gradientUnits="userSpaceOnUse" x1="159.7979" y1="478.144" x2="177.375" y2="478.144">
			<stop  offset="0" style="stop-color:#9C9EA0"/>
			<stop  offset="0.1173" style="stop-color:#9D9FA2"/>
			<stop  offset="0.1617" style="stop-color:#9EA1A3"/>
			<stop  offset="0.1798" style="stop-color:#A4A6A9"/>
			<stop  offset="0.1932" style="stop-color:#AEB0B2"/>
			<stop  offset="0.2041" style="stop-color:#BCBEC0"/>
			<stop  offset="1" style="stop-color:#BCBEC0"/>
		</linearGradient>
		<path fill="url(#SVGID_8_)" stroke="#A5A4A4" stroke-width="0.25" stroke-miterlimit="10" d="M177.375,480.298
			c0,0.532-0.523,0.964-1.168,0.964h-15.241c-0.645,0-1.168-0.432-1.168-0.964v-4.307c0-0.532,0.523-0.965,1.168-0.965h15.241
			c0.645,0,1.168,0.433,1.168,0.965V480.298z"/>
		<g>
			
				<image overflow="visible" width="339" height="313" xlink:href="7C21116C04D8F1C3.png"  transform="matrix(0.24 0 0 0.24 130.0522 440.6709)">
			</image>
		</g>
		<g>
			
				<image overflow="visible" width="305" height="305" xlink:href="7C21116C04D8F1CD.png"  transform="matrix(0.24 0 0 0.24 130.9507 441.6553)">
			</image>
		</g>
		<g>
			
				<image overflow="visible" width="305" height="305" xlink:href="7C21116C04D8F1CF.png"  transform="matrix(0.24 0 0 0.24 132.4473 441.6553)">
			</image>
		</g>
		<g>
			
				<image overflow="visible" width="305" height="305" xlink:href="7C21116C04D8F1C0.png"  transform="matrix(0.24 0 0 0.24 133.9443 441.6553)">
			</image>
		</g>
		<g>
			
				<image overflow="visible" width="305" height="305" xlink:href="7C21116C04D8F1C1.png"  transform="matrix(0.24 0 0 0.24 135.4399 441.6553)">
			</image>
		</g>
		<g>
			
				<image overflow="visible" width="305" height="305" xlink:href="7C21116C04D8F1C6.png"  transform="matrix(0.24 0 0 0.24 136.9365 441.6553)">
			</image>
		</g>
	</g>
	<g>
		<linearGradient id="SVGID_9_" gradientUnits="userSpaceOnUse" x1="186.3618" y1="478.1455" x2="195.6079" y2="478.1455">
			<stop  offset="0" style="stop-color:#6D6E71"/>
			<stop  offset="0.1307" style="stop-color:#6A6C6E"/>
			<stop  offset="0.2495" style="stop-color:#616265"/>
			<stop  offset="0.3634" style="stop-color:#515254"/>
			<stop  offset="0.4439" style="stop-color:#414042"/>
			<stop  offset="0.4491" style="stop-color:#414143"/>
			<stop  offset="0.5762" style="stop-color:#4F4F51"/>
			<stop  offset="0.7322" style="stop-color:#565759"/>
			<stop  offset="1" style="stop-color:#58595B"/>
		</linearGradient>
		<path fill="url(#SVGID_9_)" stroke="#A7A9AC" stroke-width="0.25" stroke-miterlimit="10" d="M186.362,473.857h9.246v7.178
			c0,0-0.244,1.398-1.399,1.398c-1.156,0-6.571,0-6.571,0s-1.276-0.793-1.276-1.277C186.362,480.67,186.362,473.857,186.362,473.857
			z"/>
		<rect x="190.985" y="477.08" fill="#BCBEC0" width="4.622" height="2.434"/>
		<linearGradient id="SVGID_10_" gradientUnits="userSpaceOnUse" x1="203.8198" y1="478.1455" x2="213.0659" y2="478.1455">
			<stop  offset="0" style="stop-color:#6D6E71"/>
			<stop  offset="0.1307" style="stop-color:#6A6C6E"/>
			<stop  offset="0.2495" style="stop-color:#616265"/>
			<stop  offset="0.3634" style="stop-color:#515254"/>
			<stop  offset="0.4439" style="stop-color:#414042"/>
			<stop  offset="0.4491" style="stop-color:#414143"/>
			<stop  offset="0.5762" style="stop-color:#4F4F51"/>
			<stop  offset="0.7322" style="stop-color:#565759"/>
			<stop  offset="1" style="stop-color:#58595B"/>
		</linearGradient>
		<path fill="url(#SVGID_10_)" stroke="#A7A9AC" stroke-width="0.25" stroke-miterlimit="10" d="M203.82,473.857h9.246v7.178
			c0,0-0.244,1.398-1.399,1.398c-1.157,0-6.571,0-6.571,0s-1.276-0.793-1.276-1.277C203.82,480.67,203.82,473.857,203.82,473.857z"
			/>
		<rect x="208.443" y="477.08" fill="#BCBEC0" width="4.622" height="2.434"/>
		<path fill="none" stroke="#6D6E71" stroke-width="0.5" stroke-miterlimit="10" d="M198.709,475.742
			c-0.061,0.184-1.398,2.068-1.398,2.068l1.398,0.334L197.311,480l-0.245-0.791"/>
		<path fill="none" stroke="#6D6E71" stroke-width="0.5" stroke-miterlimit="10" d="M216.462,476.016
			c-0.06,0.184-1.397,2.068-1.397,2.068l1.397,0.334l-1.397,1.855l-0.245-0.791"/>
	</g>
	<linearGradient id="SVGID_11_" gradientUnits="userSpaceOnUse" x1="223.7271" y1="478.1455" x2="238.7178" y2="478.1455">
		<stop  offset="0" style="stop-color:#6D6E71"/>
		<stop  offset="0.1307" style="stop-color:#6A6C6E"/>
		<stop  offset="0.2495" style="stop-color:#616265"/>
		<stop  offset="0.3634" style="stop-color:#515254"/>
		<stop  offset="0.4439" style="stop-color:#414042"/>
		<stop  offset="0.4491" style="stop-color:#414143"/>
		<stop  offset="0.5762" style="stop-color:#4F4F51"/>
		<stop  offset="0.7322" style="stop-color:#565759"/>
		<stop  offset="1" style="stop-color:#58595B"/>
	</linearGradient>
	
		<rect x="223.727" y="473.719" fill="url(#SVGID_11_)" stroke="#A7A9AC" stroke-width="0.25" stroke-miterlimit="10" width="14.991" height="8.854"/>
	<rect x="228.79" y="475.027" fill="#BCBEC0" width="9.928" height="2.916"/>
	<text transform="matrix(1 0 0 1 239.6094 480.1479)" fill="#6D6E71" font-family="'MyriadPro-Regular'" font-size="4.8602">Y</text>
	<g>
		<radialGradient id="SVGID_12_" cx="251.4717" cy="478.1446" r="7.5515" gradientUnits="userSpaceOnUse">
			<stop  offset="0.0178" style="stop-color:#414042"/>
			<stop  offset="0.1393" style="stop-color:#484849"/>
			<stop  offset="0.3194" style="stop-color:#5A5B5D"/>
			<stop  offset="0.536" style="stop-color:#747678"/>
			<stop  offset="0.7786" style="stop-color:#96989B"/>
			<stop  offset="1" style="stop-color:#BCBEC0"/>
		</radialGradient>
		<ellipse fill="url(#SVGID_12_)" cx="249.75" cy="478.145" rx="2.852" ry="4.197"/>
		<text transform="matrix(0 1 -1 0 253.7773 476.3901)" font-family="'MyriadPro-Regular'" font-size="4.0937">C</text>
	</g>
	<g>
		<g>
			
				<image overflow="visible" width="313" height="320" xlink:href="F0C7849CB35AF18E.png"  transform="matrix(0.24 0 0 0.24 269.9673 64.6533)">
			</image>
		</g>
		<g>
			
				<image overflow="visible" width="306" height="310" xlink:href="F0C7849CB35AF189.png"  transform="matrix(0.24 0 0 0.24 270.5059 65.9238)">
			</image>
		</g>
	</g>
</g>
</svg>
