<?xml version="1.0" encoding="utf-8"?>
<!-- Generator: Adobe Illustrator 17.0.0, SVG Export Plug-In . SVG Version: 6.00 Build 0)  -->
<!DOCTYPE svg PUBLIC "-//W3C//DTD SVG 1.1//EN" "http://www.w3.org/Graphics/SVG/1.1/DTD/svg11.dtd">
<svg version="1.1" id="Layer_1" xmlns="http://www.w3.org/2000/svg" xmlns:xlink="http://www.w3.org/1999/xlink" x="0px" y="0px"
	 width="300px" height="300px" viewBox="0 0 300 300" enable-background="new 0 0 300 300" xml:space="preserve">
<g>
	<polygon fill="#2E3D44" points="130.079,229.598 170.147,225.18 170.147,218.181 130.079,222.598 	"/>
	<polygon fill="#2E3D44" points="129.966,242.418 170.032,238.002 170.032,231.003 129.966,235.418 	"/>
	<path fill="#2E3D44" d="M249.116,0.646H50.997c-27.986,0-50.673,22.687-50.673,50.673v198.119
		c0,27.986,22.687,50.673,50.673,50.673h198.119c27.986,0,50.673-22.687,50.673-50.673V51.319
		C299.789,23.333,277.102,0.646,249.116,0.646z M59.9,110.508c0-2.365,1.917-4.282,4.282-4.282h29.57
		c-0.026,0.636-0.11,1.258-0.11,1.899c0,0.451,0.024,0.894,0.032,1.344c-0.01,0.216-0.032,0.427-0.032,0.654
		c-0.001,12.994,2.612,22.601,6.594,31.388H64.182c-2.365,0-4.282-1.917-4.282-4.282V110.508z M59.9,163.701
		c0-2.365,1.917-4.282,4.282-4.282h45.879c5.713,9.579,12.027,20.273,17.401,35.285H64.182c-2.365,0-4.282-1.917-4.282-4.283
		V163.701z M240.213,243.613c0,2.365-1.917,4.282-4.282,4.282H64.182c-2.365,0-4.282-1.917-4.282-4.282v-26.72
		c0-2.365,1.917-4.282,4.282-4.282h171.749c2.365,0,4.282,1.917,4.282,4.282V243.613z M240.213,190.42
		c0,2.365-1.917,4.283-4.282,4.283h-63.277c5.374-15.012,11.688-25.705,17.401-35.285h45.877c2.365,0,4.282,1.917,4.282,4.282
		V190.42z M240.213,137.228c0,2.365-1.917,4.282-4.282,4.282h-36.053c3.982-8.787,6.595-18.394,6.593-31.388
		c0-0.227-0.022-0.437-0.036-0.654c0.012-0.449,0.034-0.894,0.034-1.344c0-0.642-0.084-1.263-0.11-1.899h29.572
		c2.365,0,4.282,1.917,4.282,4.282V137.228z M240.213,84.035c0,2.365-1.917,4.282-4.282,4.282h-33.87
		c-8.837-19.284-29.838-32.808-52.006-32.808c-22.168,0-43.168,13.524-52.005,32.808H64.182c-2.365,0-4.282-1.917-4.282-4.282
		v-26.72c0-2.365,1.917-4.282,4.282-4.282h171.749c2.365,0,4.282,1.917,4.282,4.282V84.035z"/>
</g>
</svg>
