<?xml version="1.0" encoding="utf-8"?>
<!-- Generator: Adobe Illustrator 17.0.0, SVG Export Plug-In . SVG Version: 6.00 Build 0)  -->
<!DOCTYPE svg PUBLIC "-//W3C//DTD SVG 1.1//EN" "http://www.w3.org/Graphics/SVG/1.1/DTD/svg11.dtd">
<svg version="1.1" id="Layer_1" xmlns="http://www.w3.org/2000/svg" xmlns:xlink="http://www.w3.org/1999/xlink" x="0px" y="0px"
	 width="500px" height="500px" viewBox="0 0 500 500" enable-background="new 0 0 500 500" xml:space="preserve">
<polygon fill="#3A4D54" points="8.722,370.194 487.921,370.194 456.145,271.943 49.874,271.943 "/>
<path fill="#EACD3B" stroke="#2E3D44" stroke-width="5" stroke-miterlimit="10" d="M397.019,262.711
	c0,5.098-4.133,9.232-9.232,9.232H111.551c-5.098,0-9.232-4.133-9.232-9.232V45.462c0-5.098,4.133-9.232,9.232-9.232h276.236
	c5.098,0,9.232,4.133,9.232,9.232V262.711z"/>
<path fill="#EACD3B" stroke="#2E3D44" stroke-width="5" stroke-miterlimit="10" d="M413.391,316.035
	c0,5.665-4.592,10.257-10.257,10.257H96.205c-5.665,0-10.257-4.592-10.257-10.257V63.227c0-5.665,4.592-10.257,10.257-10.257
	h306.929c5.665,0,10.257,4.592,10.257,10.257V316.035z"/>
<path fill="#EACD3B" stroke="#2E3D44" stroke-width="5" stroke-miterlimit="10" d="M433.913,375.994
	c0,6.294-5.103,11.397-11.397,11.397H81.484c-6.294,0-11.397-5.103-11.397-11.397V83.677c0-6.294,5.103-11.397,11.397-11.397
	h341.032c6.294,0,11.397,5.103,11.397,11.397V375.994z"/>
<path fill="#EACD3B" stroke="#2E3D44" stroke-width="5" stroke-miterlimit="10" d="M454.126,445.183
	c0,6.994-5.67,12.663-12.663,12.663H62.538c-6.994,0-12.663-5.67-12.663-12.663V108.967c0-6.994,5.67-12.663,12.663-12.663h378.925
	c6.994,0,12.663,5.67,12.663,12.663V445.183z"/>
<polygon fill="#2E3D44" points="454.126,255.94 454.126,296.385 474.901,344.846 435.09,344.846 405.701,344.846 405.701,394.077 
	270.266,394.077 229.734,394.077 94.299,394.077 94.299,344.846 68.756,344.846 25.099,344.846 49.874,290.231 49.874,249.656 
	0.385,343.308 0.385,467.923 229.734,467.923 270.266,467.923 499.615,467.923 499.615,343.308 "/>
<g>
	<path fill="#2E3D44" d="M251.666,328.412h17.777c0,0,0.2,7.943-17.632,7.943s-17.42-7.943-17.42-7.943H251.666z"/>
	<polygon fill="#2E3D44" points="271.758,298.004 231.8,302.409 231.8,309.39 271.758,304.984 	"/>
	<polygon fill="#2E3D44" points="271.643,310.79 231.687,315.194 231.687,322.174 271.643,317.771 	"/>
	<path fill="#2E3D44" d="M307.927,187.552c0-29.109-27.147-52.47-56.258-52.47l0,0l0,0l0,0l0,0
		c-29.111,0-56.258,23.361-56.258,52.47c0,0.45,0.024,0.892,0.032,1.34c-0.01,0.216-0.032,0.426-0.032,0.652
		c-0.004,40.842,25.842,48.158,38.983,101.943h17.277l0,0h17.277c13.142-53.784,38.985-61.099,38.981-101.943
		c0-0.226-0.022-0.436-0.036-0.652C307.904,188.444,307.927,188,307.927,187.552z"/>
</g>
</svg>
